<?xml version="1.0"?>
<svg xmlns="http://www.w3.org/2000/svg" viewBox="0 0 500 170" height="170" width="500" class="redhat-logo">
<path class="logotext" d="m 495.6,120.6 c 0,1.8 -1.5,3.3 -3.3,3.3 -1.8,0 -3.3,-1.5 -3.3,-3.3 0,-1.8 1.5,-3.3 3.3,-3.3 1.8,0 3.3,1.5 3.3,3.3 z m -3.3,-4 c -2.2,0 -4,1.8 -4,4 0,2.2 1.8,4 4,4 2.2,0 4,-1.8 4,-4 0,-2.2 -1.8,-4 -4,-4 z m 0,3.8 c 0.6,0 1,-0.1 1,-0.7 0,-0.5 -0.4,-0.6 -0.9,-0.6 l -0.8,0 0,1.3 z m -0.7,2.3 -0.6,0 0,-4.1 1.5,0 c 1,0 1.5,0.3 1.5,1.1 0,0.8 -0.5,1.1 -1.1,1.2 l 1.2,1.8 -0.7,0 -1.1,-1.8 -0.7,0 z m -22.2,-64.92 0,11.91 15.4,0 0,4.34 -15.4,0 0,35.17 c 0,6.9 2.2,11.2 8,11.2 2.8,0 4.7,-0.4 6.1,-0.9 l 0.7,4.2 c -1.8,0.7 -4.2,1.3 -7.5,1.3 -3.9,0 -7.2,-1.3 -9.3,-3.9 -2.5,-2.8 -3.3,-7.4 -3.3,-12.9 l 0,-34.17 -9.1,0 0,-4.34 9.1,0 0,-9.94 z m -21.3,32.06 c 0,-9.67 -3,-21.38 -18.6,-21.38 -4.9,0 -10.9,1.32 -15.8,4.67 l 1.7,3.89 c 3.9,-2.76 8.8,-4.03 13.5,-4.03 12.8,-0.1 13.9,10.59 13.9,15.94 l 0,1.44 c -22,-0.23 -33,7.33 -33,19.73 0,7.3 5,14.9 15.9,14.9 8.6,0 14.6,-4.8 16,-6.9 l 2.3,5.7 4.9,0 c -0.6,-4.2 -0.8,-8.6 -0.8,-12.9 z m -5.3,16.66 c 0,0.9 -0.2,2.1 -0.6,3.2 -1.8,5.3 -7,10.9 -16,10.9 -5.6,0 -10.7,-3.5 -10.7,-11.3 0,-13 15.5,-14.77 27.3,-14.43 z m -42.7,-15.34 0,32.64 -5.3,0 0,-32.05 c 0,-9.74 -3.8,-18.62 -14.9,-18.62 -7.7,0 -14,5.52 -16.3,12.25 -0.6,1.6 -0.8,3.13 -0.8,5.33 l 0,33.09 -5.3,0 0,-71.31 5.3,1.58 0,25.29 0.3,0 c 1.5,-3.01 4.1,-5.92 7.3,-7.8 3.1,-1.91 6.8,-3.1 10.9,-3.1 5.2,0 18.8,2.56 18.8,22.7 z m -68.5,1.09 c 0,-1.09 -0.1,-2.46 -0.3,-3.57 -1.3,-5.26 -5.7,-9.59 -11.8,-9.59 -8.8,0 -13.7,7.76 -13.7,17.81 0,9.9 4.9,17.2 13.5,17.2 5.6,0 10.5,-3.9 11.8,-9.8 0.4,-1.2 0.5,-2.5 0.5,-3.9 z M 202.9,87.1 c 0,-7.23 -0.1,-12.55 -0.4,-17.36 l 11.8,0 0.5,10.26 0.4,0 c 2.7,-7.6 9,-11.48 14.8,-11.48 1.4,0 2.1,0 3.2,0.29 l 0,12.87 c -1.3,-0.25 -2.4,-0.38 -4.1,-0.38 -6.5,0 -11,4.14 -12.2,10.33 -0.3,1.2 -0.4,2.65 -0.4,4.17 l 0,28 -13.7,0 z m 142.3,21.5 c 0,5.6 0.2,11.5 0.5,15.2 l -12.2,0 -0.6,-8.6 -0.3,0 c -3.2,6.1 -9.7,9.8 -17.5,9.8 -12.9,0 -23.1,-11 -23.1,-27.6 -0.1,-18.13 11.2,-28.88 24.2,-28.88 7.4,0 12.7,3.05 15.1,7.04 l 0.3,0 0,-30.48 13.6,3.85 z m -59.3,-8.1 c 0.2,-1.2 0.5,-3.3 0.5,-5.8 0,-11.83 -5.8,-26.28 -23.3,-26.28 -17.4,0 -26.5,14.11 -26.5,28.98 0,16.6 10.3,27.4 27.9,27.4 7.8,0 14.2,-1.4 18.8,-3.4 l -2,-9.4 c -4.1,1.5 -8.6,2.5 -14.9,2.5 -8.7,0 -16.3,-4.3 -16.7,-14.1 z m -36.2,-9.58 c 0.6,-5.54 4.1,-13.17 12.5,-13.17 9.2,0 11.3,8.16 11.3,13.17 z m -83.8,29.68 c 0,1.8 -1.4,3.3 -3.2,3.3 -1.8,0 -3.3,-1.5 -3.3,-3.3 0,-1.8 1.5,-3.3 3.3,-3.3 1.8,0 3.2,1.5 3.2,3.3 z m -3.2,-4 c -2.2,0 -4,1.8 -4,4 0,2.2 1.8,4 4,4 2.2,0 4,-1.8 4,-4 0,-2.2 -1.8,-4 -4,-4 z m 0,3.8 c 0.5,0 1,-0.1 1,-0.7 0,-0.5 -0.5,-0.6 -0.9,-0.6 l -0.9,0 0,1.3 z m -0.8,2.3 -0.6,0 0,-4.1 1.6,0 c 0.9,0 1.4,0.3 1.4,1.1 0,0.8 -0.4,1.1 -1,1.2 l 1.1,1.8 -0.7,0 -1,-1.8 -0.8,0 z"></path>
<path style="fill:#fff" d="M150.1 125c-3.1-.7-6.3-1.1-9.5-1.1-5.6 0-10.8.8-14.4 2.5-.8.4-.8.9-.6 1.6.4 1.3-.3 2.7-3.9 3.5-5.4 1.2-8.8 6.7-10.7 8.6-2.3 2.1-8.8 3.5-7.8 2.2.8-1 3.7-4.2 5.4-7.6 1.6-3 3-3.9 4.9-6.8.6-.8 2.8-3.8 3.4-6.2.8-2.3.5-5.2.8-6.4.4-1.7 2-5.4 2.1-7.5.1-1.2-4.9 1.7-7.3 1.7-2.4 0-4.8-1.5-6.9-1.6-2.7-.1-4.4 2.1-6.74 1.7-1.37-.2-2.52-1.4-4.9-1.5-3.4-.2-7.57 1.9-15.38 1.6-7.68-.2-14.77-9.7-15.74-11.2-1.13-1.8-2.52-1.8-4.03-.4-1.5 1.4-3.36.3-3.9-.6-1-1.8-3.7-6.92-7.87-8-5.77-1.5-8.7 3.2-8.3 6.9.38 3.8 2.83 4.9 3.96 6.9 1.12 2 1.7 3.3 3.84 4.2 1.5.6 2.07 1.6 1.62 2.8-.4 1.1-1.97 1.3-3 1.4-2.2.1-3.74-.5-4.86-1.2-1.3-.9-2.37-2-3.5-4-1.33-2.2-3.4-3.1-5.83-3.1-1.16 0-2.24.3-3.2.8-3.8 2-8.3 3.1-13.17 3.1H9.1C19.64 138.5 49.14 161 83.88 161c27.73 0 52.13-14.3 66.23-36"></path>
<path style="fill:#000" d="m 150.1,125 c -2.6,-0.6 -6.3,-1.1 -9.5,-1.1 -5.6,0 -10.7,0.9 -14.4,2.5 -0.5,0.2 -0.7,0.6 -0.7,1.1 0,0.2 0,0.4 0.1,0.5 0.4,1.3 -0.3,2.7 -3.9,3.5 -5.4,1.2 -8.8,6.7 -10.7,8.6 -2.3,2.1 -8.8,3.5 -7.8,2.2 0.8,-1 3.7,-4.2 5.4,-7.6 1.6,-3 3,-3.9 4.9,-6.8 0.6,-0.8 2.8,-3.8 3.4,-6.2 0.8,-2.3 0.5,-5.2 0.8,-6.4 0.4,-1.7 2,-5.4 2.1,-7.5 0.1,-1.2 -4.9,1.7 -7.3,1.7 -2.4,0 -4.8,-1.5 -6.9,-1.6 -2.6,-0.1 -4.3,2.1 -6.74,1.7 -1.36,-0.2 -2.51,-1.4 -4.9,-1.5 -3.41,-0.1 -7.56,1.9 -15.37,1.6 -7.68,-0.2 -14.78,-9.7 -15.75,-11.2 -1.13,-1.8 -2.52,-1.8 -4.03,-0.4 -1.51,1.4 -3.37,0.3 -3.9,-0.6 -1.01,-1.8 -3.7,-6.92 -7.87,-8 -5.77,-1.5 -8.69,3.19 -8.31,6.9 0.38,3.8 2.83,4.9 3.96,6.9 1.14,2 1.72,3.3 3.85,4.2 1.51,0.6 2.07,1.6 1.62,2.8 -0.39,1.1 -1.96,1.3 -3,1.4 -2.2,0.1 -3.74,-0.5 -4.86,-1.2 -1.31,-0.9 -2.37,-2 -3.51,-4 -1.32,-2.2 -3.4,-3.1 -5.82,-3.1 -1.15,0 -2.23,0.3 -3.19,0.8 -3.8,2 -8.31,3.1 -13.18,3.1 l -5.481,0 C 6.45,99.4 5,90.95 5,82.13 5,38.57 40.32,3.26 83.88,3.262 c 43.52,0 78.82,35.31 78.82,78.87 0,15.77 -4.6,30.57 -12.6,42.87 z m -49.2,-7.2 c -1.03,1.2 -1.47,1.6 -2.21,2.2 -1.78,1.4 -3.81,-0.2 -5.11,-1 -2.9,-1.7 -5.23,-0.6 -5.8,0.7 -0.57,1.3 0.1,2.9 1.64,2.7 2.21,-0.3 2.31,0.1 3.9,1.1 2.98,1.9 5.15,0.8 6.26,-0.1 0.92,-0.7 1.42,-1.3 1.92,-2.2 0.9,-1.7 0.2,-3 -0.3,-3.4 -0.1,-0.1 -0.2,-0.1 -0.3,0 z"></path>
<path style="fill:#c00" d="m 87.26,25.76 c 3.86,-0.47 10.35,-1.28 10.82,1.61 0.18,1.13 -1.98,2.32 -5.13,3.05 -0.34,0.1 -0.33,0.54 0,0.67 1.32,0.38 2.86,0.65 4.49,0.65 5.06,0.12 9.16,-1.71 9.26,-4.07 0.1,-2.36 -4,-4.39 -9.04,-4.49 -0.99,0 -1.98,0 -3.09,0.15 -3.02,0.3 -5.62,1.1 -7.42,1.98 -0.29,0.14 -0.28,0.45 0.11,0.45 z m -9.53,15.06 c 4.35,-0.32 4.79,-1.32 4.66,-2.39 -0.14,-1.25 -2.77,-2.71 -6.67,-2.71 -3.84,0 -6.6,0.46 -8.99,0.56 -2.39,0.1 -4.24,-1.69 -5.1,-2.76 -0.71,-0.88 -2.97,-1.73 -4.2,1.1 -1.24,2.86 1.07,5.93 2.97,6.33 0,0 3.17,5.89 5.57,3.33 1.71,-1.82 2.65,-2.8 11.76,-3.46 z m 43.87,28.83 c 2.9,-1.57 5.5,-3.63 6.8,-8.5 13.4,3.02 21.3,10 19.6,19.43 C 144.2,101.3 110.3,108.3 77.23,98.3 45.75,88.79 18.11,69.8 21.31,58.68 c 1.86,-6.48 12.13,-9.24 25.82,-7.76 -2.08,4.23 -1.92,9.21 7.14,14.75 11.07,6.29 29.79,11.66 34.85,11.14 1.89,-0.2 3.58,-1.13 1.89,-2.27 -1.7,-1.13 -3.21,-3.4 -4.16,-7.36 C 86.33,64.97 85.73,61.89 73.83,59.63 48.31,54.77 49.29,47.55 50.05,43.4 c 0,0 2.26,-10.19 3.21,-13.78 0.94,-3.59 3.38,-11.82 19.82,-8.12 9.5,2.14 14.62,-0.52 17.24,-1.19 7.1,-1.82 14.98,-0.57 19.28,3.9 4.5,4.63 10.7,18.9 13.7,29.57 1.5,5.42 1.1,8.02 0.3,9.85 -0.5,1.25 -0.8,2.05 -2.7,5.22 -0.3,0.56 -0.1,1.17 0.7,0.8 z"></path>
</svg>